<svg xmlns="http://www.w3.org/2000/svg" viewBox="0 0 80 80" aria-hidden="true" width="32" height="32"><path d="M71.44 25.69v-3.86c0-2.42-.25-2.68-2.68-2.68h-6.29v-2.13c0-.6.02-1.2 0-1.8v-.12c-.03-.87-.76-1.54-1.62-1.51h-.1c-.84.07-1.46.82-1.39 1.66-.01 1.25 0 2.5 0 3.82h-5.89v-.96c0-5.36-.01-10.73.01-16.09.1-.85-.35-1.67-1.13-2.03H7.2C6.44.42 6 1.26 6.1 2.12c0 25.23.02 50.46.02 75.69 0 1.7.47 2.17 2.19 2.17h63.43c1.71 0 2.18-.47 2.18-2.18V28.45c0-2.31-.14-2.48-2.46-2.76Zm-17.93-3.37h14.77v3.38H53.51v-3.38Zm-16.49 54.5H22.57V65.51h14.45v11.31Zm33.71.01H53.45V61.17c.01-.87-.68-1.58-1.54-1.59h-.04c-.89.04-1.58.8-1.54 1.69v15.57H40.18V64.45c0-1.64-.46-2.11-2.07-2.11H21.4c-1.5 0-2.02.51-2.02 2.02v12.47H9.28V3.19h41.07v43.14c-.02.39.02.78.11 1.16.21.7.89 1.16 1.61 1.08.73-.08 1.3-.66 1.37-1.39.02-.28.03-.57.02-.85V28.91h17.26v7.59c-.25.01-.52.03-.8.03h-7.89c-1.35 0-1.88.54-1.88 1.9v7.5c-.74 0-1.41-.01-2.08 0h-.29c-.86.09-1.49.85-1.4 1.71s.85 1.49 1.71 1.4h12.63v6.05h-8.55c-1.52 0-2.01.5-2.01 2.01v7.39c-.7 0-1.36-.01-2.03 0-1.1.02-1.75.61-1.75 1.56 0 .07 0 .14.01.21.11.85.89 1.46 1.75 1.35H70.75v9.2Zm0-37.11v6.19h-7.39v-6.19h7.39Zm0 24.74h-7.4v-6.18h7.4v6.18ZM13.91 21.03c0 1.22.59 1.79 1.84 1.79h5.15c1.77 0 3.54.01 5.31 0 .15.02.3.02.45 0a1.56 1.56 0 0 0 1.33-1.77v-8.19c.02-.14.02-.29 0-.43-.13-.86-.93-1.46-1.79-1.33H15.75a1.6 1.6 0 0 0-1.82 1.81v8.11Zm3.15-6.75h7.73v5.36h-7.73v-5.36Zm9.15 31.04c-3.51-.01-7.02-.01-10.53 0-.14-.02-.29-.02-.43 0-.86.13-1.46.93-1.33 1.79v8.11a1.586 1.586 0 0 0 1.82 1.81h10.38c1.31 0 1.88-.55 1.88-1.83v-8.11a1.578 1.578 0 0 0-1.78-1.78Zm-1.39 8.56h-7.74v-5.4h7.74v5.4Zm19.13-8.56c-3.54-.01-7.07-.01-10.61 0a1.577 1.577 0 0 0-1.74 1.75c-.01 2.73-.01 5.46 0 8.19a1.587 1.587 0 0 0 1.78 1.78h10.54c1.17 0 1.76-.56 1.76-1.7.02-2.78.02-5.57 0-8.35.01-.12.01-.23 0-.35-.11-.84-.88-1.43-1.71-1.32Zm-1.46 8.57h-7.73V48.5h7.73v5.39Zm1.42-42.78H33.38a1.34 1.34 0 0 0-.4 0c-.88.11-1.5.91-1.38 1.79-.01 2.71-.01 5.41 0 8.11-.02.16-.02.32 0 .47.13.87.95 1.47 1.82 1.34h5.23c1.74 0 3.48.01 5.23 0 1.22 0 1.79-.55 1.8-1.75.01-2.73.01-5.46 0-8.19.02-.15.02-.3 0-.46a1.56 1.56 0 0 0-1.77-1.33Zm-1.4 8.53h-7.76v-5.37h7.76v5.37ZM27.99 30.08c0-1.31-.54-1.85-1.84-1.87-1.72-.01-3.43 0-5.15 0-1.74 0-3.48-.01-5.23 0-1.31 0-1.86.56-1.86 1.85v8.03c-.03.16-.03.32 0 .48.12.87.94 1.48 1.81 1.36 3.48.01 6.97.01 10.45 0 .16.02.33.02.49 0 .87-.14 1.46-.95 1.32-1.82v-8.03Zm-3.16 6.7h-7.75V31.4h7.75v5.38Zm18.95-8.56h-5.15c-1.74 0-3.48-.02-5.23 0-.16-.03-.33-.03-.49 0-.87.14-1.46.95-1.32 1.82v8.03a1.638 1.638 0 0 0 1.87 1.87c3.46.01 6.92.01 10.38 0 1.29 0 1.84-.57 1.84-1.87v-7.96c0-1.36-.53-1.89-1.89-1.9Zm-1.28 8.57h-7.73v-5.4h7.73v5.4ZM53.45 54.1c.01.84-.66 1.53-1.51 1.55h-.02c-.85.01-1.55-.66-1.58-1.5 0-.88.7-1.59 1.58-1.6.85.02 1.53.71 1.53 1.56Z" fill="#0A0500"></path></svg>