<svg xmlns="http://www.w3.org/2000/svg" viewBox="0 0 80 80" aria-hidden="true" width="32" height="32"><path d="M78.76 60.62c-.31-.05-.62-.06-.93-.06h-7.5c-.27 0-.54-.02-.73-.03v-5.58h8.14c.26 0 .52 0 .78-.02.85-.04 1.51-.76 1.48-1.61v-.05c-.05-.83-.76-1.47-1.59-1.43-2.63-.02-5.26-.01-7.89-.01-.3 0-.6-.03-.88-.04v-5.57h8.1c.23 0 .47 0 .7-.01h.02c.87-.02 1.57-.75 1.54-1.62v-.1c-.08-.84-.82-1.46-1.67-1.38-2.63-.01-5.26 0-7.89 0-.28 0-.55-.03-.81-.04v-5.58h3.72c1.66 0 3.33.03 4.99-.01.34.02.67-.07.96-.26.71-.47.91-1.44.43-2.15-.35-.5-.94-.78-1.55-.71h-7.73c-.28 0-.55-.02-.83-.04v-5.58h8.49c1.18 0 1.92-.65 1.9-1.6s-.71-1.52-1.88-1.52h-8.5V20h.88c2.55 0 5.1.01 7.65 0 1.12 0 1.84-.63 1.84-1.58 0-.95-.7-1.54-1.86-1.54h-8.56v-5.63h8.27c1.4 0 2.16-.55 2.15-1.58 0-1.03-.72-1.55-2.17-1.55-9.45 0-18.91-.09-28.36.05-2.88.21-5.75-.52-8.17-2.1-.36-.24-.66-.55-.89-.91-.75-1.34-1.42-2.72-2.17-4.06a1.58 1.58 0 0 0-.74-.79 1.54 1.54 0 0 0-2.07.71c-.17.29-.32.6-.48.89-.53 1.35-1.25 2.63-2.13 3.78-1.15.89-2.43 1.6-3.8 2.11-.39.19-.82.29-1.26.3-2.76.03-5.52 0-8.28.03a.896.896 0 0 1-1.03-.73A9.054 9.054 0 0 0 10.22.87a8.946 8.946 0 0 0-8.97 4.78C.73 6.75.32 7.89 0 9.06v12.66c.07.07.13.15.19.23.34.65 1.1.96 1.8.74.74-.2 1.22-.9 1.13-1.66v-10.7c-.05-1.91.8-3.73 2.3-4.92a6.02 6.02 0 0 1 6.65-.89c2.26.89 3.73 3.09 3.69 5.52.05 12.23.02 24.47.02 36.7-.01.12-.03.24-.06.36a9.538 9.538 0 0 0-12.61.09V35.72c0-1.15-.36-1.77-1.14-1.97-.84-.22-1.39.09-1.98 1.1v20.63c.05.06.09.12.12.19 1.12 5.13 4.68 8.02 9.92 8.02h11.16c-.69 1.43-1.18 2.74-2.71 3.31-1.07.48-2.11 1.01-3.12 1.59-.48.16-.85.53-1.01 1-.29.84.15 1.76 1 2.05 1.34.69 2.68 1.38 4 2.12.35.2.64.5.84.85.75 1.34 1.45 2.7 2.16 4.07.16.42.5.75.92.91.82.31 1.74-.11 2.05-.93.71-1.36 1.42-2.72 2.16-4.07.19-.33.46-.61.79-.8 1.36-.76 2.75-1.48 4.13-2.19.4-.16.72-.47.88-.87a1.59 1.59 0 0 0-.87-2.07c-1.1-.65-2.23-1.23-3.39-1.76-1.49-.57-1.86-1.89-2.58-3.22.84.04 1.69.04 2.53-.01 2.39-.32 4.82.33 6.72 1.82.42.31.87.57 1.34.79 2.24 1 4.16 2.61 5.54 4.64.08.11.16.2.26.3a5.562 5.562 0 0 0 7.73.69c.68-.52 1.33-1.07 2.05-1.66.76.93 1.51 1.83 2.25 2.73 1.69 2.05 3.36 4.11 5.07 6.15.13.2.3.37.5.49.73.45 1.68.22 2.13-.51.41-.64.31-1.48-.24-2.01l-3.77-4.58c-1.16-1.4-2.31-2.81-3.51-4.27.64-.47 1.25-.98 1.83-1.54.67-.71 1.26-1.49 1.75-2.34.16-.46.61-.75 1.09-.71 6.02.01 12.03.01 18.05.01.36.01.73-.02 1.09-.08.57-.15 1.01-.61 1.12-1.19.16-.83-.38-1.63-1.21-1.79Zm-69.29-.06h-.04a6.333 6.333 0 0 1-6.3-6.37c.02-3.5 2.87-6.32 6.37-6.3s6.32 2.87 6.3 6.37c-.01 3.48-2.84 6.3-6.33 6.3ZM36.79 5.13a6.734 6.734 0 0 0 4.57 4.48 7.176 7.176 0 0 0-4.57 4.63 6.818 6.818 0 0 0-4.53-4.58 6.833 6.833 0 0 0 4.52-4.53Zm-17.81 6.15c.25-.02.47-.05.7-.05 2.73 0 5.46-.01 8.19.01.41.01.81.11 1.18.29.82.38 1.58.94 2.43 1.23 1.54.54 2.06 1.85 2.68 3.24H18.98v-4.73Zm0 7.96h28.17c1.23 6.29 5 10.04 11.35 11.3v1.3c0 2.92-.01 5.83.01 8.75 0 .53-.12.74-.7.85-2.58.46-4.96 1.68-6.84 3.51-1.71 1.59-3.47 3.14-5.23 4.68-.96.84-1.99 1.6-2.95 2.44-.44.4-1.02.61-1.61.59-7.08-.02-14.16-.01-21.24-.01h-.96V19.24Zm9.48 50.87a6.928 6.928 0 0 0-4.6 4.63 7.03 7.03 0 0 0-4.63-4.63 6.936 6.936 0 0 0 4.62-4.63 6.922 6.922 0 0 0 4.62 4.62Zm6.72-11.78a7.438 7.438 0 0 1-6.35 2.28c-3.74-.2-7.49-.05-11.24-.05h-.77c.74-1.56 1.48-3.1 2.27-4.76h19.13a33.41 33.41 0 0 0-3.04 2.53Zm6.7 6.27c-.35.4-.95.44-1.35.11-1.54-.96-3.13-1.84-4.82-2.81l14.43-11.84c.49 1.4.95 2.71 1.4 4.03q.69 2-.98 3.37c-2.9 2.38-5.8 4.75-8.68 7.15Zm13.27-.5c-2.19 1.84-4.39 3.66-6.63 5.43-1.02.79-2.48.63-3.3-.37-.54-.6-1.03-1.24-1.61-1.95l10.26-8.43c.67.79 1.29 1.62 1.87 2.48.52.96.27 2.15-.58 2.83Zm11.3-5.23c0 1.36-.31 1.68-1.64 1.68-1.8 0-3.59.01-5.39-.01-.26 0-.51-.12-.7-.31-.88-1.16-1.73-2.33-2.55-3.53-.44-.6-.8-1.26-1.09-1.95-.78-2.12-1.47-4.28-2.23-6.41-.19-.4-.08-.88.27-1.15a9.65 9.65 0 0 1 6.49-2.84c1.51-.06 2-.55 2-2.06V29.48c0-1.51-.41-1.96-1.9-2.06a9.85 9.85 0 0 1-9.31-8.02c-.09-.54-.15-1.08-.18-1.63-.1-1.24-.6-1.73-1.83-1.73h-8.94a6.15 6.15 0 0 1 2.76-3.36 12.06 12.06 0 0 1 6.22-1.5c5.44.11 10.88.04 16.33.04 1.35 0 1.67.31 1.67 1.64v46.02ZM.37 29.22c-.13-.15-.25-.31-.37-.47v-.94c.22-.59.74-1.02 1.37-1.12.85-.11 1.62.5 1.72 1.34.08.61-.22 1.22-.76 1.53-.65.38-1.48.24-1.96-.34Z"></path></svg>