<svg xmlns="http://www.w3.org/2000/svg" viewBox="0 0 80 80" aria-hidden="true" width="32" height="32"><path d="M20.02 10.79c-.18.24-.34.57-.56.8a.69.69 0 0 1-.24.18c-.41.19-.89.18-1.29-.02-.74-.61-1.42-1.29-2.06-2-.11-.12-.22-.23-.32-.35l-.02-.02c-.4-.49-.33-1.21.16-1.61l.03-.03c.39-.48 1.1-.55 1.59-.16.85.77 1.66 1.58 2.42 2.42.15.15.16.43.29.79ZM13.2 7.51c-.06-.02-.13-.03-.19-.05a1.57 1.57 0 0 0-1.16.17c-.83.66-1.59 1.42-2.25 2.25a1.5 1.5 0 0 0-.11 1.35c.26.4.68.66 1.15.74.78.11 3.32-2.5 3.34-3.59-.16-.19-.39-.71-.77-.87Zm2.51-1.88c.43.47 1.15.52 1.64.12.85-.72 1.63-1.52 2.34-2.38.21-.4.22-.88.04-1.29-.16-.36-.65-.56-.96-.8-.4.13-.7.14-.87.3-.81.76-1.63 1.53-2.37 2.36-.31.39-.35.91-.12 1.32.07.14.18.26.3.37ZM9.18 2.5c.1.36.26.71.45 1.02.68.74 1.4 1.47 2.15 2.15.05.04.12.06.17.09.08.04.15.09.23.12.08.03.16.03.24.04.07.01.14.02.22.02.08 0 .16-.02.23-.03.07-.02.15-.04.22-.07.07-.03.14-.06.21-.11.03-.02.06-.03.09-.05.04-.03.06-.07.09-.1.04-.04.1-.06.14-.11.03-.03.04-.08.06-.11l.09-.15c.04-.09.07-.18.09-.27.01-.06.03-.12.03-.18 0-.09 0-.18-.01-.28 0-.07 0-.13-.03-.19-.03-.1-.08-.2-.14-.29-.03-.04-.03-.09-.06-.13-.69-.81-1.46-1.55-2.28-2.23-.39-.22-.87-.26-1.29-.1-.17.07-.32.22-.45.39-.03.04-.06.08-.09.11-.12.16-.23.32-.36.46Zm17.47 56.44v12.8c0 .14 0 .27-.02.39-.11.83-.59 1.19-1.55 1.2h-12.8c-1.16-.01-1.62-.45-1.62-1.6-.01-4.27-.01-8.54 0-12.8 0-1.15.47-1.59 1.64-1.59h12.72c1.14 0 1.63.48 1.63 1.61Zm-13.28 1.12v3.88h3.89v-3.88h-3.89Zm3.88 6.69h-3.87v3.87h3.87v-3.87Zm2.76-.04v3.9h3.91v-3.9h-3.91Zm3.93-3.55v-3.12h-3.93v3.92h3.92v-.8Zm2.7-11.43c0 1.1-.48 1.58-1.57 1.58H12.28c-1.17 0-1.62-.44-1.62-1.59-.01-4.27-.01-8.53 0-12.8 0-1.15.47-1.59 1.63-1.59h12.72c.14 0 .28 0 .4.02.86.11 1.24.59 1.24 1.58v12.8Zm-13.26-7.76h3.85v-3.93h-3.85v3.93Zm0 6.63h3.87v-3.88h-3.87v3.88Zm6.62 0h3.92v-3.87H20v3.87Zm3.94-10.54H20v3.87h3.94v-3.87Zm30.71 36.58c.19 1.47-.68 2.87-2.08 3.35H6.04a3.17 3.17 0 0 1-2.06-3.37C4.02 62.53 4 48.44 4 34.35V33.3c-.43 0-.81.01-1.19 0-.92.03-1.78-.41-2.29-1.17-.82-1.22-.49-2.87.73-3.69 2.38-1.78 4.77-3.54 7.15-5.3 6.27-4.64 12.55-9.29 18.83-13.93 1.63-1.21 2.57-1.2 4.22.02 2.68 1.98 5.35 3.97 8.04 5.94.63.33.93 1.06.71 1.73-.06.17-.16.33-.29.47-.51.53-1.36.55-1.89.04-2.12-1.55-4.23-3.13-6.34-4.69-.63-.46-1.24-.96-1.9-1.38a.944.944 0 0 0-.85-.04c-8.61 6.36-17.22 12.71-25.82 19.08-.08.09-.15.18-.21.28h22.4c.34-.01.67.01 1.01.08.64.14 1.07.75.97 1.4-.03.63-.53 1.13-1.16 1.16-.29.02-.57.03-.86.02H6.71V77.3h25.27v-.87c0-3.67-.03-7.34 0-11.02 0-.17 0-.33.01-.5.23-4.4 3.99-7.79 8.39-7.56 4 .16 7.24 3.3 7.52 7.3.14 3.85.06 7.71.08 11.56v1.07h4V54.56c-.01-.29 0-.57.04-.86.11-.68.73-1.15 1.41-1.08.65.03 1.17.56 1.2 1.21.02.26.01.52.01.78 0 7.34-.03 14.69.02 22.03Zm-9.48-12.19c-.1-2.45-2.48-4.35-4.96-4.45h-.35a5.34 5.34 0 0 0-5.23 5.45c-.02 3.77 0 7.54 0 11.32 0 .18.03.36.06.54h10.53c0-4.33.13-8.59-.05-12.85ZM79.93 6.56v2.19c-.48 2.58-2.13 4.35-4.02 6.02-4.38 3.89-8.68 7.87-13.02 11.8-.39.26-.5.78-.25 1.18 1.55 3.42.84 7.45-1.79 10.14-.67.64-1.39 1.23-2.13 1.78-.18.17-.31.38-.37.62a434.4 434.4 0 0 0-1.86 7.09c-.15.63-.55 1.19-1.1 1.53a8.561 8.561 0 0 1-5.84 1.21c-10.34-1.14-18.52-9.26-19.73-19.59-.24-1.77 0-3.56.71-5.2a3.177 3.177 0 0 1 2.33-1.96c2.26-.5 4.48-1.14 6.71-1.78.33-.14.62-.37.81-.68 1.38-2.08 3.5-3.57 5.92-4.17 1.96-.49 4.04-.3 5.88.54h.02c.39.26.91.15 1.16-.24 4.29-4.75 8.62-9.48 12.91-14.23A7.811 7.811 0 0 1 71.75.02c3.8-.25 7.2 2.33 8 6.05.05.17.1.33.17.5ZM55.52 38.51c-4.7-4.68-9.39-9.38-14.08-14.08a.957.957 0 0 0-1.1-.27c-2.15.6-4.31 1.18-6.48 1.7-.54.09-.98.51-1.09 1.05-.46 1.81-.43 3.71.08 5.51.31-.07.55-.12.8-.19 1.35-.37 2.7-.76 4.06-1.1.69-.19 1.41.19 1.62.87.22.7-.16 1.45-.86 1.67-.27.09-.54.17-.82.24-1.32.36-2.64.72-4.02 1.1.84 2.16 2.06 4.16 3.62 5.89.36-.41.66-.77.99-1.11 1.12-1.13 2.23-2.26 3.37-3.36.02-.02.03-.04.05-.05.51-.5 1.34-.49 1.84.02.52.53.51 1.38-.01 1.9-.17.2-.36.37-.55.56-1.29 1.27-2.58 2.54-3.87 3.82 1.67 1.59 3.67 2.79 5.86 3.52.4-1.45.79-2.9 1.2-4.35.29-1.05.88-1.49 1.71-1.26s1.13.91.86 1.94c-.4 1.5-.8 3-1.23 4.58 1.83.51 3.75.53 5.59.06.49-.1.87-.49.97-.98.54-2.22 1.14-4.43 1.75-6.63.14-.37.03-.78-.27-1.03Zm2.73-12.35c-1.71-1.52-3.25-3.23-4.88-4.84-.31-.34-.65-.64-1.02-.91a6.685 6.685 0 0 0-9.34 1.48l15.05 15.04c.43-.33.82-.7 1.16-1.12 2.4-2.93 1.96-7.25-.97-9.65Zm19.01-18.4a5.037 5.037 0 0 0-3.13-4.71 4.982 4.982 0 0 0-5.63 1.3c-4.4 4.83-8.79 9.66-13.17 14.49-.08.09-.15.19-.22.29 1.92 1.93 3.79 3.8 5.72 5.73.66-.59 1.31-1.19 1.97-1.78 4.19-3.82 8.39-7.63 12.59-11.44a5.19 5.19 0 0 0 1.87-3.88ZM37.31 6.01c0-2.57 2.07-4.66 4.64-4.66h.04c2.56.01 4.63 2.1 4.62 4.66 0 2.56-2.08 4.63-4.64 4.64-2.57 0-4.66-2.07-4.66-4.64Zm2.67-.06c-.03 1.09.83 2 1.92 2.04h.08c1.09-.01 1.97-.91 1.95-2.01a1.972 1.972 0 0 0-2.01-1.95c-1.06.01-1.92.86-1.95 1.92Zm29.29 45.36a4.641 4.641 0 0 1-4.59 4.68 4.654 4.654 0 0 1-4.71-4.59 4.654 4.654 0 0 1 4.59-4.71h.03a4.646 4.646 0 0 1 4.68 4.61Zm-2.67.07c.02-1.09-.85-1.99-1.94-2.01-1.09-.02-2 .85-2.02 1.94-.02 1.09.85 2 1.94 2.02 1.09.01 1.99-.85 2.02-1.94Zm2.67-14.02c-.88-.03-1.77-.03-2.65 0h-.01c-.74 0-1.34.59-1.34 1.33.02.74.63 1.32 1.37 1.32.41.02.83 0 1.25 0 .46 0 .93.03 1.4 0h.07c.72-.04 1.26-.66 1.22-1.37v-.03c-.02-.7-.61-1.25-1.31-1.23Zm3.97-4.12c-.01-.66-.53-1.19-1.19-1.21-.03 0-.05 0-.08-.01-.63-.07-1.21.38-1.28 1.01-.1 1.08-.1 2.18-.01 3.26.1.65.69 1.11 1.35 1.04.68-.04 1.22-.6 1.22-1.28.03-.46 0-.93 0-1.4 0-.47.03-.94 0-1.41Zm4.01 4.11c-.44-.02-.88 0-1.33 0h-1.33s-1.3.57-1.32 1.27v.03c0 .73.58 1.33 1.31 1.33.91.04 1.82.04 2.73 0h.03c.71-.02 1.26-.61 1.24-1.31v-.06a1.31 1.31 0 0 0-1.33-1.27Zm-4 5.31c0-.46.02-.93 0-1.4 0-.66-.52-1.2-1.18-1.24h-.02c-.65-.1-1.25.34-1.35.99-.09 1.11-.09 2.23 0 3.34v.05c.14.64.75 1.05 1.39.92.63-.03 1.13-.54 1.15-1.17.04-.49 0-.99 0-1.48ZM42.63 69.35c0-.49.03-.99 0-1.48-.01-.63-.52-1.14-1.15-1.16a.585.585 0 0 0-.13-.02c-.62-.08-1.18.36-1.26.98-.1 1.11-.1 2.22 0 3.33v.02c.11.65.72 1.09 1.37.98.66-.04 1.17-.58 1.18-1.24.03-.46 0-.93 0-1.4Z"></path></svg>