<svg xmlns="http://www.w3.org/2000/svg" viewBox="0 0 80 80" aria-hidden="true" width="32" height="32"><path d="M78.46 67.99a5.091 5.091 0 0 0 1.36-3.86c-.04-1.02 0-2.05 0-3.07.02-.22.02-.44 0-.66-.18-2.57-2.41-4.52-4.98-4.34h-3V35.1c0-3.71-1.66-5.91-5.32-6.92 0-.78.01-1.53 0-2.27v-.21a2.986 2.986 0 0 0-3.1-2.87c-1.38-.01-2.77 0-4.15 0-2.2 0-3.47 1.19-3.35 3.39a8.88 8.88 0 0 1-1.35 5.59c-.09.14-.14.3-.22.45a9.387 9.387 0 0 0-1.13 4.7c.03 6.07.01 12.13.01 18.2v.92c-2.08 0-4.04-.02-6.01 0-2.54 0-4.6 2.05-4.62 4.59-.02.94.03 1.89-.01 2.83-.24 1.61.24 3.24 1.32 4.46-2.15 2.98-1.17 6.21-1.11 9.34H21.33c0-2.15.01-4.25 0-6.35 0-1.05-.48-1.58-1.49-1.58-4.32-.01-8.64-.01-12.96 0a.97.97 0 0 0-.34 0c-.73.09-1.24.76-1.15 1.49-.02 1.88 0 3.77 0 5.65 0 .27-.02.53-.04.83H3.87q-1.14 0-1.14-1.13V26.86H.06v49.66c0 2.32 1.15 3.47 3.46 3.47h65.61v-2.66H47.65c-1.64 0-2.38-.75-2.38-2.39 0-1.14-.01-2.27 0-3.41a2.006 2.006 0 0 1 2.18-2.18h27.88c1.1.08 1.92 1.03 1.84 2.13.02 1.14 0 2.27 0 3.41 0 1.7-.73 2.43-2.42 2.44H71.9v2.66c1.15 0 2.25.02 3.35 0 2.31.06 4.26-1.68 4.48-3.98.11-2.72.87-5.62-1.25-8.02Zm-59.84 9.3H8.08v-5.21h3.97v2.55h2.6v-2.55h3.98v5.22Zm50.53-21.66c-.01.16-.36.41-.55.41-4.04.03-8.08.03-12.12 0a.753.753 0 0 1-.55-.5c-.07-.68-.03-1.37-.03-2.12h13.28c0 .75.03 1.48-.03 2.21Zm-13.2-4.93v-5.22h13.19v5.22H55.95Zm13.16-16.77c.08 1.15.09 2.3.03 3.45-1.73.17-2.61-.6-2.62-2.28v-4.16a3.53 3.53 0 0 1 2.59 2.99Zm-8.28-8.45c.77 0 1.55.02 2.32 0 .47-.01.73.12.71.65-.03.63 0 1.27 0 1.98h-5.23c-.04-.08-.06-.16-.08-.25q-.09-2.38 2.28-2.38Zm-3.73 7.08c.63-1.37 1.36-1.99 2.9-1.79 1.28.09 2.57.1 3.86.03v1.73c0 .94-.01 1.88 0 2.82v.08a4.648 4.648 0 0 0 4.63 4.67h.65v2.61H55.95c-.03-.2-.05-.4-.06-.6 0-1.41.07-2.83-.02-4.23-.05-1.85.37-3.69 1.23-5.33Zm20.05 31.9c.02.16.02.32 0 .48a2.035 2.035 0 0 1-2.27 1.76H47.74c-1.76 0-2.48-.71-2.48-2.45v-3.24c-.02-.16-.02-.33 0-.49a2.025 2.025 0 0 1 2.24-1.79h27.47a2.004 2.004 0 0 1 2.19 2.16c.01 1.19.01 2.38 0 3.57ZM2.77 18.87h53.09l.06 1.23h2.63V3.69c0-2.32-1.15-3.47-3.46-3.47H3.53C1.22.21.07 1.36.07 3.68v20.43h2.7v-5.25ZM2.71 3.79c0-.74.23-.93.95-.93 17.1.02 34.21.02 51.31 0 .73 0 .95.2.94.93-.03 3.82-.03 7.64 0 11.46 0 .74-.23.93-.95.93-8.55 0-17.1-.01-25.65-.01-8.52 0-17.05-.01-25.57.02-.8 0-1.04-.21-1.03-1.02.04-3.79.04-7.59 0-11.38Zm26.65 25.69c-8.81-.03-15.97 7.09-16 15.9v.13c.05 8.82 7.25 15.92 16.07 15.87 8.74-.06 15.8-7.15 15.83-15.9.03-8.81-7.09-15.97-15.9-16Zm13.26 15.68c.1 5.46-3.14 10.42-8.18 12.53-6.78 2.83-14.57-.37-17.4-7.15-.08-.19-.13-.4-.17-.55 1.34.26 2.64.62 3.97.76 3.6.42 7.21-.69 9.94-3.06.64-.53 1.3-1.03 1.95-1.54 2.58-1.96 5.9-2.63 9.04-1.84.47.09.82.21.84.87Zm-.63-3.58c-2-.33-4.04-.3-6.03.11a13.57 13.57 0 0 0-5.55 2.86c-.63.5-1.27.99-1.89 1.49-3.48 2.6-8.2 2.83-11.91.57a1.44 1.44 0 0 1-.57-.96 13.28 13.28 0 0 1 8.95-12.83c6.93-2.38 14.48 1.31 16.86 8.24.04.13.07.26.13.51Zm4.42 11.29c2.35-5.4 1.99-11.59-.96-16.69a17.9 17.9 0 0 0-9.22-8.01c-9.54-3.79-20.35.87-24.14 10.41-3.79 9.54.87 20.35 10.41 24.14a18.612 18.612 0 0 0 16.76-1.53l1.35 2.12c-6.3 4.5-17.67 5.18-25.75-2.31-8.63-7.96-9.18-21.41-1.22-30.04 7.96-8.63 21.41-9.18 30.04-1.22a21.26 21.26 0 0 1 5.07 24.15l-2.34-1.01ZM62.13 7.44c1.74.67 3.12 2.06 3.76 3.81.01.03.03.05.04.07.67 1.12 1.94 1.2 2.46.03.76-1.79 2.18-3.2 3.97-3.96.36-.13.65-.41.78-.78.23-.66-.12-1.39-.78-1.62a6.88 6.88 0 0 1-3.94-3.97c-.03-.11-.1-.2-.18-.27-.32-.23-.66-.43-1.17-.76-.44.44-.97.76-1.17 1.22a6.298 6.298 0 0 1-3.69 3.65c-.03 0-.05.02-.07.04-.3.43-.84.86-.84 1.28.07.53.38.99.85 1.25Zm5.08-2.01c.25.31.52.6.81.87l-.82.74-.82-.93.84-.68ZM67.06 0Zm5.46 14.48a6.097 6.097 0 0 1-3.73 3.71c-.08.03-.15.08-.22.12-.29.13-.51.36-.64.65-.28.65.01 1.4.66 1.68 1.85.76 3.32 2.22 4.08 4.08.16.38.7.6 1.24 1.02.49-.5 1.03-.81 1.23-1.28a6.282 6.282 0 0 1 3.62-3.61c.61-.17 1.04-.73 1.04-1.36 0-.63-.44-1.19-1.05-1.36a5.91 5.91 0 0 1-3.55-3.55.368.368 0 0 0-.08-.15c-.37-.37-.81-.67-1.29-.88-.63-.14-1.09.34-1.32.92Zm1.31 5.98-.87-.97.96-.81.75.82-.84.96Zm-20.65 3.62h-6.54v-2.56h6.54v2.56Zm-11.59-9.24h11.3c1.19 0 1.66-.47 1.66-1.66V5.87c0-1.19-.47-1.66-1.66-1.66h-11.3c-1.19 0-1.66.46-1.66 1.66v7.31c0 1.19.47 1.66 1.66 1.66Zm1.03-7.93h9.2v5.22h-9.2V6.9ZM5.39 9.02a4.626 4.626 0 0 0 4.48 4.47c1.44.04 2.88.04 4.32 0 2.1-.03 3.9-1.52 4.33-3.58.14-.93.19-1.87.15-2.81.01-1.09-.49-1.57-1.57-1.58H6.89A1.34 1.34 0 0 0 5.4 7.01c-.02.66-.02 1.33 0 1.99Zm2.7-.8h7.82a2.008 2.008 0 0 1-2.11 2.63c-1.13.01-2.27 0-3.4 0-1.69 0-2.44-.84-2.32-2.63Zm21.26 6.62c2.94-.02 5.3-2.42 5.28-5.36a5.318 5.318 0 0 0-5.36-5.28c-2.94.03-5.3 2.43-5.28 5.37a5.307 5.307 0 0 0 5.36 5.26Zm-.03-7.97c1.47 0 2.65 1.2 2.65 2.66s-1.2 2.65-2.66 2.65c-1.46 0-2.63-1.18-2.65-2.64v-.02c0-1.47 1.2-2.65 2.66-2.65ZM36 10.89h2.55v2.57H36v-2.57Zm-15.93.02h2.55v2.57h-2.55v-2.57Zm18.52-2.76H36V5.6h2.59v2.55Zm-15.97-.02h-2.55V5.57h2.55v2.56Zm12.07 40.01h2.56v2.56h-2.56v-2.56ZM22.7 52.13h2.58v2.56H22.7v-2.56Zm7.98 1.34h2.56v2.56h-2.56v-2.56Z"></path></svg>