<svg xmlns="http://www.w3.org/2000/svg" viewBox="0 0 80 80" aria-hidden="true" width="32" height="32"><path d="M61 12.62c.21-.35.55-.6.95-.69.1-.02.2-.04.3-.04H62.34c.49-.02.98 0 1.56 0 0-.55-.02-1.03 0-1.52v-.08c0-.04.01-.08.02-.12 0-.05.01-.11.02-.16 0-.04.02-.07.03-.11.02-.07.04-.13.07-.2 0-.02.02-.03.03-.05.04-.08.08-.15.13-.22.27-.39.71-.65 1.22-.66.68-.02 1.26.4 1.49 1v.02c.04.08.06.17.08.25 0 .03 0 .06.01.09 0 .05.02.1.02.15v.11c.02.46 0 .93 0 1.49.53 0 1.02-.02 1.5 0h.08c.07 0 .15.01.22.03h.03c.09.02.18.05.26.08.01 0 .02 0 .03.01.08.03.16.07.23.12a.896.896 0 0 1 .23.17c.02.01.03.03.05.04.05.05.1.11.15.17.02.02.04.04.05.07.04.05.07.11.1.17.02.03.04.06.05.1.02.05.04.11.06.16.01.04.03.09.04.13.01.05.01.1.02.15 0 .04.02.08.02.13v.07c0 .03 0 .06-.01.09 0 .07-.01.14-.02.2 0 .03-.02.06-.02.09-.02.07-.04.14-.07.21 0 .02-.02.04-.03.06-.03.07-.07.14-.12.21 0 .01-.02.02-.03.04-.05.07-.11.13-.17.2l-.02.02c-.07.06-.14.12-.21.17h-.02c-.08.06-.16.1-.25.14h-.02c-.09.04-.18.07-.28.09h-.02a.78.78 0 0 1-.22.03h-.08c-.47.02-.93 0-1.52 0 0 .52.01 1 0 1.48V16.74c0 .07-.02.13-.03.2 0 .03-.02.07-.03.1-.02.07-.04.13-.07.19-.01.03-.03.06-.04.08-.03.06-.07.12-.11.18-.02.02-.03.04-.05.06-.05.06-.1.12-.16.17-.02.01-.03.03-.05.04-.06.05-.13.1-.19.14-.02.01-.03.02-.05.03-.07.04-.14.07-.22.1-.02 0-.04.01-.06.02l-.23.06c-.02 0-.05 0-.07.01-.04 0-.07.01-.11.02H65.35c-.08 0-.16-.02-.24-.04-.02 0-.04-.01-.06-.02-.08-.02-.15-.05-.22-.08-.02-.01-.05-.02-.07-.03a.707.707 0 0 1-.18-.12c-.02-.02-.05-.03-.07-.05-.05-.04-.1-.09-.15-.14l-.07-.07c-.04-.05-.08-.1-.11-.15-.02-.03-.04-.07-.06-.1a.774.774 0 0 1-.07-.16c-.02-.04-.03-.09-.05-.13-.01-.05-.03-.1-.04-.15l-.03-.17v-.24c-.01-.46 0-.92 0-1.46-.56 0-1.05.02-1.54 0h-.1c-.1 0-.19-.02-.28-.04-.01 0-.03 0-.04-.01-.08-.02-.17-.05-.24-.08-.02 0-.04-.02-.06-.03-.07-.03-.13-.07-.2-.11-.03-.02-.05-.04-.07-.06-.05-.04-.1-.08-.15-.13-.03-.03-.05-.06-.08-.09-.04-.04-.07-.09-.11-.13-.03-.04-.05-.09-.08-.13-.02-.04-.05-.08-.07-.13a3.25 3.25 0 0 0-.06-.17l-.03-.11c-.02-.07-.02-.14-.03-.22V13.44c0-.06.01-.12.02-.18v-.06c.02-.09.04-.17.07-.26v-.03c.05-.09.09-.17.14-.25Zm-3.29 21.13v3.13h20.2c1.59 0 2.08.5 2.08 2.11v5.31c0 1.4-.55 1.94-1.94 1.95h-1.19V75.4c0 1.61-.49 2.1-2.1 2.1H46.8c-1.64 0-2.12-.49-2.12-2.15V46.27c-1.09 0-2.14-.02-3.2.02-.13 0-.29.25-.38.41a4.718 4.718 0 0 1-4.49 2.69h-7.52v3.12h7.62a4.691 4.691 0 0 1 4.85 4.52 4.691 4.691 0 0 1-4.52 4.85H32.19c0 1.11-.03 2.19 0 3.27.08 2.27-.07 3.17-2.86 2.99-.07 0-.14.02-.21.04v3.08h.83c2.32 0 4.64-.02 6.95 0 2.34 0 4.31 1.74 4.62 4.06.03.21.04.41.03.62-.02.86-.73 1.54-1.59 1.53-.76-.02-1.4-.58-1.51-1.34-.25-1.41-.64-1.76-2.07-1.76-2.37 0-4.74 0-7.11.01-.08.02-.15.05-.22.09 0 .45.02.94 0 1.43.03.86-.65 1.58-1.5 1.61-.86.03-1.58-.65-1.61-1.5v-.07c-.02-.49 0-.98 0-1.56h-7.63c-.86-.1-1.65.51-1.75 1.38 0 .06-.01.13-.01.19a1.58 1.58 0 0 1-1.63 1.54h-.08a1.6 1.6 0 0 1-1.41-1.78v-.05a4.677 4.677 0 0 1 4.63-4.4c2.32-.03 4.64 0 6.95 0h.88v-3.12H24.6a1.6 1.6 0 0 1-1.79-1.39c-.02-.13-.02-.26 0-.39-.01-1.46 0-2.91 0-4.47-1.54 0-3.05.07-4.54-.03-.85-.04-1.69-.25-2.45-.63-1.86-1-2.79-3.15-2.23-5.18a4.656 4.656 0 0 1 4.43-3.53c2.6-.03 5.2 0 7.86 0v-3.13h-1.61c-1.82 0-3.65-.05-5.47.01a4.915 4.915 0 0 1-5.11-3.11H6.25v29.04c.01.29 0 .57-.03.86a1.55 1.55 0 0 1-1.77 1.3c-.69-.1-1.22-.65-1.31-1.34-.03-.29-.03-.57-.02-.86V46.28c-1.15-.08-2.48.27-3.13-1.11v-7.19c.41-.78 1.25-1.22 2.12-1.11 3.46.04 6.93.02 10.39.02h.92c0-.92-.01-1.77 0-2.62.04-2.39-.07-4.8.18-7.18.86-6.19 5.71-11.06 11.9-11.94 2.04-.27 4.12-.1 6.1.48.17.05.34.08.57.13V6.03c0-.62-.01-1.25 0-1.88-.06-.85.58-1.58 1.42-1.64h.2c5.08-.01 10.16-.01 15.23 0 .85-.03 1.56.64 1.59 1.49v.08c-.02.87-.74 1.56-1.61 1.54H35.34c-.02.23-.04.4-.04.58 0 3.52-.01 7.03.02 10.55.01.34.16.67.41.9 3.78 2.75 5.96 7.19 5.82 11.86v1.06h35.27V5.63H63.14c-.87 0-1.57-.7-1.58-1.57v-.03c.02-.85.72-1.53 1.57-1.52 1.35-.03 2.71 0 4.06 0h10.86c1.39 0 1.94.55 1.94 1.95v27.33c0 1.43-.54 1.96-2 1.96H57.7Zm-44.34 6.29H3.16v3.03h10.22v-3.03Zm15.65 21.88h-3.04v3.02h3.04v-3.02Zm-1.52-6.3h-3.82c-1.85 0-3.69-.01-5.54.02a1.55 1.55 0 0 0-1.58 1.51v.07c.03.85.72 1.52 1.56 1.53.23.01.47 0 .7 0h16.15c.65 0 1.3.02 1.95-.01.65 0 1.22-.43 1.41-1.05.25-.54.1-1.19-.37-1.56-.41-.3-.9-.46-1.41-.48-3.02-.04-6.03-.02-9.05-.02Zm10.93-11.35c0-5.05.01-10.1 0-15.15 0-6.04-4.91-10.93-10.94-10.92-6.04 0-10.93 4.91-10.92 10.94-.01 5.05 0 10.1 0 15.15 0 1.4.55 1.95 1.93 1.96h17.96c1.44 0 1.98-.54 1.98-1.98Zm3.16-7.45h12.87v-3.03H41.59v3.03Zm32.12 25.1H47.87v12.41h25.84V61.92Zm0-15.62H47.87v12.4h25.84V46.3Zm-32.1-6.27v3.03h35.22v-3.03H41.61ZM4.08 10.26c.03-.8.66-1.45 1.47-1.49a4.795 4.795 0 0 0 4.78-4.76c0-.84.69-1.51 1.52-1.5h.05c.83 0 1.5.66 1.51 1.48a4.795 4.795 0 0 0 4.76 4.78c.84 0 1.51.69 1.5 1.53v.05c0 .82-.66 1.5-1.48 1.51-2.63 0-4.76 2.13-4.78 4.76 0 .84-.69 1.51-1.52 1.51h-.05c-.83 0-1.5-.66-1.51-1.48a4.795 4.795 0 0 0-4.76-4.78 1.55 1.55 0 0 1-1.49-1.6Zm6.43.11 1.3 1.27 1.29-1.27-1.17-1.43-1.41 1.43Zm40.35 8.17c-.06-.05-.12-.1-.18-.14a.3.3 0 0 0-.08-.04l-.18-.09c-.04-.02-.08-.03-.12-.04-.05-.02-.11-.03-.16-.04-.05-.01-.11-.01-.17-.02-.04 0-.07-.01-.11-.01h-.08c-.05 0-.1.01-.15.02-.04 0-.07 0-.11.01l-.22.06c-.02 0-.05.01-.07.02-.08.03-.15.07-.23.12-.01 0-.02.01-.03.02-.08.05-.15.11-.22.17h-.01c-.3.3-.49.72-.47 1.17-.01.48 0 .97 0 1.49-.57 0-1.03-.02-1.5 0h-.08c-.05 0-.1.01-.14.02-.04 0-.08 0-.11.01-.07.01-.14.04-.21.06-.02 0-.05.01-.07.02-.08.03-.15.07-.22.11-.01 0-.03.01-.04.02-.08.05-.15.11-.21.17h-.02c-.07.08-.13.15-.19.23-.19.27-.3.59-.3.94 0 .08.02.16.03.23.02.1.04.2.08.29.03.1.08.18.13.26v.02c.06.07.11.14.17.21 0 .01.02.02.03.03.05.06.11.11.18.16.02.01.04.03.06.04.06.04.12.07.18.1.03.02.06.03.09.05.06.02.11.04.17.06.04.01.08.03.13.04.05.01.1.01.15.02.04 0 .08.02.13.02h.08c.48.02.97 0 1.51 0 0 .56-.02 1.02 0 1.48V26c0 .04.01.08.02.12v.05c.02.09.04.17.07.25l.02.04c.03.08.07.16.11.23 0 .01.02.03.03.04.04.07.09.13.14.19l.05.05c.05.05.1.1.16.15.02.02.05.04.08.05.05.04.11.07.17.1.03.02.07.03.11.05.05.02.11.04.17.06.04.01.09.02.14.03.05.01.11.02.16.02.03 0 .05.01.08.01h.23c.07 0 .14-.02.2-.03.03 0 .06-.02.09-.02.07-.02.14-.05.2-.08.02-.01.05-.02.07-.03.07-.04.14-.08.2-.13.02-.01.03-.02.05-.03.07-.05.13-.11.18-.17l.03-.03c.06-.07.11-.14.16-.22v-.02c.06-.08.1-.16.13-.25v-.03c.04-.08.06-.17.07-.26v-.04s.02-.08.02-.12v-.17c.01-.46 0-.92 0-1.45h1.54c.86.02 1.57-.65 1.6-1.51a1.56 1.56 0 0 0-1.51-1.6h-.08c-.49-.02-.98 0-1.55 0 0-.59.02-1.06 0-1.53 0-.24-.05-.47-.15-.67-.04-.1-.09-.18-.14-.26 0 0-.01-.02-.02-.03-.05-.07-.11-.13-.17-.19a.218.218 0 0 0-.05-.04Zm3.69-14.25s0 .06.01.08c.02.08.04.16.07.23 0 .02.01.04.02.05.03.08.08.16.12.23 0 .01.01.02.02.03.05.08.11.15.17.21l.02.02c.07.07.14.13.22.18h.01c.08.06.16.11.25.15h.01c.09.04.18.07.27.09h.02c.09.02.19.03.28.04h.09c.07 0 .14-.02.21-.03h.05c.08-.02.16-.04.24-.07.02 0 .04-.01.06-.02.07-.03.14-.07.2-.11.02-.01.04-.02.07-.04.06-.04.11-.08.16-.13.02-.02.05-.04.07-.07.04-.04.08-.09.11-.14.03-.03.05-.06.08-.1.03-.04.05-.09.07-.13.02-.04.05-.09.07-.14.02-.04.03-.08.04-.13.02-.06.04-.11.05-.17 0-.04 0-.07.01-.11 0-.05.02-.11.02-.16v-.07c-.04-.84-.74-1.5-1.58-1.5-.84.02-1.52.7-1.53 1.55v.07c0 .06.02.12.02.18Zm1.77 48.2H65.2a1.578 1.578 0 0 0 1.79-1.78c-.12-.86-.92-1.46-1.78-1.34h-8.88a1.578 1.578 0 0 0-1.79 1.78c.12.86.92 1.46 1.78 1.34Zm0 15.63h8.88a1.578 1.578 0 0 0 1.78-1.79c-.13-.86-.93-1.46-1.79-1.33h-8.88a1.578 1.578 0 0 0-1.78 1.79c.13.86.93 1.46 1.79 1.33Z"></path></svg>