<svg xmlns="http://www.w3.org/2000/svg" viewBox="0 0 80 80" aria-hidden="true" width="32" height="32"><path d="M77.73 59.79c-.54-4.28-1-8.58-1.5-12.87-.16-1.4-.31-2.79-.49-4.19v-.08a1.2 1.2 0 0 0-1.3-1.09c-.67.07-1.05.6-1.02 1.4 0 .16.02.31.03.47.64 5.5 1.27 11.01 1.95 16.51a4.047 4.047 0 0 1-4.1 4.75c-2.6.02-5.21 0-7.81 0-.2 0-.4-.02-.63-.03v-2.94h.9c2 0 4.01.01 6.01 0 .13 0 .26 0 .39-.02a2.477 2.477 0 0 0 2.13-2.78c-.35-3.13-.73-6.25-1.1-9.38-.81-6.85-1.63-13.69-2.44-20.54-.82-7-1.64-14-2.48-21-.23-1.95-1.07-2.67-3.04-2.67H43.24c-.26-.02-.52 0-.77.05-.54.1-.92.59-.89 1.13-.02.58.41 1.07.98 1.14.26.03.52.04.78.02H63.9l6.08 51.66H62.8c0-1.22.01-2.39 0-3.55-.02-3.85-2.05-7.41-5.36-9.39-5.21-3.11-11.96-1.41-15.07 3.8l-.39.62c-.17-.29-.3-.51-.44-.73-.17-.28-.35-.55-.54-.81-3.6-4.86-10.46-5.89-15.32-2.29a10.687 10.687 0 0 0-4.48 8.93v3.42H10.03l6.08-51.66h20.87c.91 0 1.45-.44 1.46-1.16 0-.72-.54-1.18-1.44-1.18H16.31a2.508 2.508 0 0 0-2.56 2.44L12.46 18.7l-2.28 19.22c-.81 6.85-1.59 13.7-2.41 20.54-.25 2.13.71 3.28 2.86 3.28h24.44v2.93c-.12.02-.24.04-.37.04-8.72 0-17.44.02-26.16 0-.2 0-.4-.02-.59-.05a3.998 3.998 0 0 1-3.34-4.56c.14-1.14.28-2.27.41-3.41.64-5.56 1.29-11.11 1.93-16.67.66-5.58 1.31-11.16 1.97-16.74.66-5.63 1.3-11.27 1.99-16.89.34-2.79 1.8-4.02 4.59-4.02h43.18c2.11 0 4.22-.02 6.33 0 2.1-.04 3.88 1.55 4.06 3.65.12 1.03.25 2.07.37 3.1.65 5.58 1.31 11.16 1.96 16.74.44 3.77.87 7.55 1.33 11.32.11.87.62 1.32 1.3 1.26.73-.07 1.12-.65 1.01-1.55-.36-3.15-.74-6.3-1.1-9.45-.85-7.26-1.67-14.52-2.55-21.78A6.158 6.158 0 0 0 67.62.57c-.5-.2-1.01-.38-1.53-.53H13.92c-.08.06-.17.1-.26.14a6.326 6.326 0 0 0-5.07 5.79L7.15 18.29C6.49 23.9 5.84 29.5 5.18 35.11c-.6 5.14-1.2 10.28-1.81 15.42-.38 3.2-.79 6.4-1.11 9.61-.02.27-.03.54-.02.8.12 3.5 3.07 6.24 6.57 6.12h26.34v.98c0 3.23-.01 6.46 0 9.68a2.058 2.058 0 0 0 2.28 2.27h2.89c2 0 2.42-.31 2.96-2.26h11.39c.04.1.08.2.11.31 0 .08.01.15.03.22a2.094 2.094 0 0 0 2.43 1.72h3.12c1.69 0 2.46-.79 2.46-2.5V67.05h.93c2.63 0 5.26.04 7.89-.02.23 0 .45-.03.68-.06 3.48-.48 5.92-3.7 5.44-7.18Zm-42.6-.44h-5.8a30.4 30.4 0 0 1 .04-4.16 2.744 2.744 0 0 1 3.06-2.29c1.43.12 2.56 1.27 2.67 2.7.02.28.03.57.02.86v2.89Zm5.67 17.82c0 .13-.02.25-.03.44h-3.3V56.15a5.291 5.291 0 0 0-5-5.57 5.291 5.291 0 0 0-5.57 5c-.04 1.22 0 2.44 0 3.73h-3.25c-.39-4.38-.16-7.87 3.75-10.61a7.971 7.971 0 0 1 8.65-.58 8.027 8.027 0 0 1 4.73 7.35c.1 7.23.04 14.47.04 21.7Zm14.77-1.85c-.23.02-.47.03-.7.03H43.18v-2.94c.28-.01.55-.04.82-.04h10.84c.31 0 .62.02.92.09.68.17 1.14.81 1.1 1.51-.05.7-.59 1.27-1.29 1.35Zm-6.64-19.91c.18-1.37 1.3-2.42 2.67-2.52a2.91 2.91 0 0 1 3.11 2.69c.06 1.11.02 2.23.02 3.35 0 .14-.02.27-.05.41H48.9c0-1.35-.08-2.65.02-3.93Zm6.02 6.32c.26 0 .52.02.77.07.71.17 1.19.83 1.13 1.56-.07.73-.66 1.3-1.4 1.32-.6.03-1.2.01-1.79.01H43.19v-2.92c.24-.02.46-.05.68-.05h11.08Zm-.26 5.36v2.87H43.2v-2.87h11.49Zm5.76 7.89v2.6h-3.5c.17-.19.35-.37.53-.53.44-.29.81-.66 1.1-1.1 1.16-1.77.66-4.15-1.11-5.31-.21-.2-.35-.46-.38-.75-.06-.46.02-.94-.02-1.4a2.82 2.82 0 0 1 1.03-2.68c.18-.18.35-.37.49-.58 1.14-1.66.71-3.93-.95-5.06-.4-.24-.62-.69-.58-1.15.03-1.2.04-2.4-.02-3.59a5.251 5.251 0 0 0-4.96-4.88 5.265 5.265 0 0 0-5.54 4.97c-.05 1.24 0 2.49 0 3.82H43.2c-.23-3.51-.19-6.9 2.54-9.61a8.422 8.422 0 0 1 9.36-1.89 8.324 8.324 0 0 1 5.33 8.01c.07 6.37.02 12.75.02 19.13Zm-2.32-38.76c.9-.06 1.39.34 1.43 1.06.04.72-.41 1.2-1.28 1.26-2.15.2-4.3-.48-5.93-1.89-.22-.18-.42-.37-.63-.55-3.14 3.22-8.3 3.29-11.53.16l-.19-.19c-3.07 3.22-8.18 3.34-11.4.27l-.27-.27c-.22.2-.43.39-.65.57a7.95 7.95 0 0 1-5.85 1.92c-.93-.06-1.41-.51-1.38-1.25.03-.74.53-1.14 1.48-1.08 1.85.15 3.66-.6 4.87-2 .63-.83 1.82-1 2.65-.37.13.1.24.21.34.34 2.69 2.74 6.04 2.75 8.7.02a1.91 1.91 0 0 1 2.68-.33c.12.09.22.2.31.31 2.69 2.73 6.06 2.74 8.7.01a1.882 1.882 0 0 1 2.99 0 5.881 5.881 0 0 0 4.94 2.01Zm.32-8.31c-.06.71-.57 1.07-1.47 1.02a7.836 7.836 0 0 1-4.79-2.02l-.45-.39c-4.7 3.29-7.67 3.29-11.75-.03a8.125 8.125 0 0 1-5.83 2.47c-2.2 0-4.31-.9-5.83-2.5a8.248 8.248 0 0 1-4.35 2.35c-.38.07-.77.12-1.16.13-.61.08-1.17-.34-1.25-.95v-.05c-.09-.62.33-1.2.95-1.29.03 0 .07 0 .1-.01.33-.06.68-.06 1-.13 1.18-.25 2.25-.86 3.06-1.76a1.956 1.956 0 0 1 3.26-.03 5.63 5.63 0 0 0 7.94.51c.19-.17.37-.35.54-.55.62-.88 1.83-1.09 2.71-.47.18.12.33.28.46.45a5.624 5.624 0 0 0 8.53.02c.61-.87 1.81-1.09 2.68-.48.18.13.34.28.47.47a5.703 5.703 0 0 0 3.88 1.93c.93.07 1.38.56 1.31 1.31Zm-1.17-9.79s-.01.06-.02.09c-.14.63-.76 1.03-1.39.89-.04 0-.08-.02-.12-.03-.16-.01-.31-.05-.45-.12-1.02-.55-2.04-1.1-3.05-1.67-.2-.14-.39-.3-.56-.48-3.15 3.23-8.33 3.29-11.56.13l-.15-.15a8.1 8.1 0 0 1-5.84 2.48c-2.11.02-4.14-.81-5.64-2.3-1.33.69-2.55 1.34-3.79 1.97-.24.11-.5.16-.76.17-.57.08-1.11-.3-1.22-.87-.2-.52.07-1.1.59-1.3.03-.01.05-.02.08-.03a7.72 7.72 0 0 0 3.66-2.25c.78-.81 1.93-.61 2.81.34a5.593 5.593 0 0 0 4.98 1.87 5.49 5.49 0 0 0 3.46-1.79c1.15-1.22 2.19-1.22 3.32-.03a5.631 5.631 0 0 0 7.95.45c.15-.13.29-.28.43-.43 1.16-1.22 2.19-1.23 3.31-.01.81.86 1.84 1.47 2.98 1.75.62.09 1.05.67.95 1.29Z"></path></svg>