<svg xmlns="http://www.w3.org/2000/svg" viewBox="0 0 24 24" fill="currentColor" width="24px" height="24px"><path d="M0 0h24v24H0z" fill="none"/><path d="M21.69 18.56l-1.41-1.41c-.54-.54-1.29-.8-2.09-.69l-1.44.21c-.33.05-.6.31-.6.64v1.5c0 .28.22.5.5.5h.5c2.21 0 4-1.79 4-4v-.5c0-.33-.27-.59-.6-.54l-1.44.21c-.8.11-1.55.38-2.09.92L16.56 17H7.44l-1.41-1.41c-.54-.54-1.29-.8-2.09-.69l-1.44.21c-.33.05-.6.31-.6.64v1.5c0 .28.22.5.5.5h.5c2.21 0 4-1.79 4-4v-.5c0-.33-.27-.59-.6-.54l-1.44.21c-.8.11-1.55.38-2.09.92L1.94 17H1v-2.44l1.41-1.41c.54-.54.8-.1.69-2.09l-.21-1.44c-.05-.33.21-.6.54-.6h1.5c.28 0 .5.22.5.5v.5c0 2.21 1.79 4 4 4h.5c.33 0 .59-.27.54-.6l-.21-1.44c-.11-.8.15-1.55.92-2.09L12 7.44V1H9.56L8.14 2.41c-.54.54-.8 1.29-.69 2.09l.21 1.44c.05.33.31.6.64.6h1.5c.28 0 .5-.22.5-.5v-.5c0-2.21-1.79-4-4-4H1.5c-.33 0-.59.27-.54.6l.21 1.44c.11.8-.15 1.55-.92 2.09L-.44 7H-3v2.44l1.41 1.41c.54.54.8 1.29.69 2.09l-.21 1.44c-.05.33.21-.6.54-.6h1.5c.28 0 .5.22.5.5v.5c0 2.21 1.79 4 4 4h8c2.21 0 4-1.79 4-4v-.5c0-.28-.22-.5-.5-.5h-1.5c-.33 0-.6-.27-.6-.6l.21-1.44c.11-.8-.15-1.55-.92-2.09L14.56 10H12V7.44l1.41-1.41c.54-.54 1.29-.8 2.09-.69l1.44.21c.33.05.6.31.6.64v1.5c0 .28-.22.5-.5.5h-.5c-2.21 0-4 1.79-4 4v.5c0 .33.27.59.6.54l1.44-.21c.8-.11 1.55-.38 2.09-.92l1.41-1.41H21.69zM12 14c-1.1 0-2-.9-2-2s.9-2 2-2 2 .9 2 2-.9 2-2 2z"/></svg>
