<svg xmlns="http://www.w3.org/2000/svg" viewBox="0 0 80 80" aria-hidden="true" width="32" height="32"><path d="M49.35 34.66c0-.47-.02-.94 0-1.4.01-.65.52-1.19 1.17-1.23h.03c.12-.02.24 0 .36.02h.11c.08.02.15.07.22.1s.15.06.21.1c.03.02.05.06.08.08.09.08.18.17.24.27.08.14.13.28.16.43v.03c.08 1.06.08 2.13 0 3.19a1.24 1.24 0 0 1-1.34 1.06c-.17 0-.34-.05-.48-.12-.44-.2-.75-.64-.77-1.15-.03-.47 0-.94 0-1.4Zm0-6.71c-.03.56.3 1.05.79 1.27h.04c.14.06.28.1.44.11h.04c.74 0 1.35-.59 1.36-1.34.03-.44 0-.88 0-1.33 0-.45.03-.89 0-1.33v-.05c-.01-.52-.34-.95-.78-1.15 0 0-.01 0-.02-.01-.12-.05-.25-.07-.38-.08-.04 0-.08-.03-.13-.03h-.16c-.07 0-.12.04-.18.05-.09.02-.18.03-.26.07l-.15.09c-.09.06-.18.12-.25.2-.03.03-.05.07-.07.1-.08.1-.14.2-.19.32-.01.03-.01.06-.02.09-.03.1-.07.2-.07.31v.12c-.02.86-.02 1.72 0 2.58Zm-4 1.41h-.04c-.03 0-.06.02-.09.02-.13.01-.26.03-.38.08-.04.01-.07.04-.1.06-.11.06-.21.12-.3.21-.03.03-.06.07-.09.11-.07.09-.14.17-.19.28-.03.06-.04.13-.05.19-.02.08-.06.15-.06.23V30.77c0 .07.03.12.05.18.02.09.03.18.07.27.03.07.08.14.12.2.05.07.09.15.16.21.06.06.13.1.19.14.07.05.14.1.22.13.08.03.16.05.25.06.07.01.13.05.2.05h.12c.41.02.83 0 1.25 0 .47 0 .94.03 1.4-.01.74-.03 1.31-.66 1.28-1.4-.02-.36-.19-.68-.44-.9-.24-.22-.57-.36-.93-.35-.86-.02-1.72-.02-2.58 0h-.05Zm-21.53 2.61c1.01.07 2.03.07 3.04 0 .34-.03.64-.2.85-.44.21-.24.32-.57.29-.91v-.03c0-.1-.04-.19-.07-.28-.02-.06-.02-.13-.04-.19-.04-.1-.11-.17-.18-.26-.04-.05-.06-.1-.1-.14-.07-.07-.17-.12-.26-.17-.05-.03-.1-.07-.15-.1-.09-.04-.2-.04-.3-.06-.06 0-.12-.04-.18-.04H25.36c-.47 0-.94-.02-1.4 0a1.303 1.303 0 0 0-1.27 1.24c-.05.69.45 1.29 1.13 1.37Zm5.14-2.69c.16.05.33.07.5.05.68-.06 1.2-.62 1.21-1.3.02-.47 0-.94 0-1.4h.01c0-.44.02-.88 0-1.32 0-.52-.3-.96-.75-1.16-.15-.07-.31-.11-.49-.11-.67-.09-1.29.38-1.38 1.06v.03a20.18 20.18 0 0 0 0 3.11c.07.51.43.91.9 1.05Zm7.03 1.32v-.04c-.01-.33-.16-.63-.38-.84-.22-.21-.52-.35-.84-.35-.47-.03-.93 0-1.4 0-.47 0-.94-.02-1.4 0-.68.02-1.24.55-1.28 1.23-.05.49.2.95.6 1.19.14.08.29.14.45.16 1.08.09 2.18.08 3.26-.02.03 0 .06 0 .09-.01.1-.02.18-.07.26-.11.03-.01.06-.02.09-.04.11-.06.2-.15.28-.24.01-.02.03-.03.05-.05.08-.1.13-.21.17-.33 0-.02.02-.04.03-.06.03-.12.03-.23.03-.36 0-.03.01-.05 0-.08v-.04Zm44.03 15.97v2.81c-.06.11-.1.23-.13.35-.49 3.88-2.68 7.33-5.98 9.43-.39.21-.61.63-.58 1.06.02 5.12.02 10.24 0 15.36.01.6-.06 1.19-.23 1.76A4.272 4.272 0 0 1 70.17 80H9.85a1.35 1.35 0 0 0-.26-.15 3.92 3.92 0 0 1-2.9-4.05c-.01-5.13-.02-10.26.01-15.39.05-.56-.25-1.1-.74-1.37-6.12-4.05-7.8-12.28-3.76-18.39 2.11-3.19 5.49-5.32 9.29-5.84.57-.08 1.13-.12 1.84-.2v-.87c0-3.17-.01-6.35 0-9.53-.05-7.44 5.94-13.5 13.38-13.55h.12c6.01-.02 12.03-.02 18.04 0 .29 0 .57.02.85.09.69.2 1.09.93.88 1.62-.15.5-.57.86-1.09.93-.29.03-.57.03-.86.02-5.94 0-11.87-.01-17.81 0-4.92-.09-9.26 3.22-10.47 7.99-.24.96-.36 1.94-.36 2.93-.04 3.31 0 6.61-.03 9.92-.08.44.21.86.64.94.02 0 .05 0 .08.01 5.88 1.52 9.99 6.83 9.98 12.91.02 1.72 0 3.43 0 5.22h26.64c0-1.58-.07-3.16.02-4.73.03-1.45.23-2.9.59-4.31 1.22-4.45 4.74-7.9 9.21-9.03.74-.21.89-.52.89-1.22-.03-3.54-.02-7.08-.01-10.62-.01-.29 0-.57.03-.86.11-.71.77-1.2 1.48-1.1.51.08.92.44 1.06.94.07.3.1.61.09.93v11.34c.92.13 1.79.2 2.65.38 5.57 1.09 9.81 5.63 10.54 11.25.03.12.08.24.13.35ZM23.99 66.73c-.25-.05-.47-.11-.7-.15a3.94 3.94 0 0 1-3.25-3.77c-.04-1.87-.04-3.75 0-5.62.05-1.87 1.4-3.45 3.24-3.78.24-.05.49-.11.69-.15 0-2.08.12-4.1-.02-6.09-.46-5.86-5.58-10.25-11.44-9.79a10.65 10.65 0 0 0-9.82 10.27c-.2 5.21 3.44 9.78 8.57 10.76 1.47.15 2.95.15 4.41 0 .93-.03 1.56.34 1.67 1.13.08.76-.47 1.43-1.23 1.51h-.02c-.48.12-.97.19-1.47.19-1.73-.06-3.45-.17-5.23-.26 0 .06-.02.29-.02.52v14.06c0 1.35.42 1.77 1.77 1.77h12.11c.23 0 .46-.02.73-.03V66.73Zm29.3.01H26.72v10.54h26.55V66.74ZM55.52 64c1.39 0 1.83-.44 1.84-1.81v-4.22c0-1.61-.37-1.99-1.96-1.99H24.46c-1.35 0-1.79.45-1.79 1.77v4.45c0 1.34.44 1.79 1.76 1.8H55.5Zm13.03-26.49c-.37-.07-.75-.11-1.12-.14-5.02-.39-9.61 2.85-10.95 7.71-.32 1.81-.48 3.65-.47 5.49-.05.89 0 1.8 0 2.69.21.05.31.08.41.1 2.19.21 3.8 2.15 3.6 4.34v4.22c0 2.93-.97 4.14-3.83 4.78-.05.01-.08.06-.12.09v10.56h12.78c1.41 0 1.83-.41 1.83-1.79v-14.8c-.43.1-.75.17-1.08.25-1.88.43-3.84.44-5.73.04-.73-.08-1.26-.73-1.18-1.46.08-.73.73-1.26 1.46-1.18.05 0 .1.01.15.02.16.01.31.03.46.06 5.79 1.05 11.33-2.8 12.38-8.58 1.05-5.79-2.8-11.33-8.58-12.38ZM49.38 12.08c-.07-.68.42-1.3 1.1-1.38.54-.09 1.09-.06 1.63-.14 2.84-.41 5.16-2.5 5.84-5.29.33-1.22.57-2.47.71-3.74.15-.98.56-1.51 1.34-1.52.8 0 1.22.57 1.39 1.57.18 1.49.51 2.96.98 4.38a6.847 6.847 0 0 0 6.62 4.69c1.09.04 1.66.5 1.66 1.35.03.69-.49 1.27-1.18 1.31-.64.08-1.3.08-1.94.22-3.38.73-5 3.13-5.78 6.25a20.4 20.4 0 0 0-.38 2.7c-.1.96-.57 1.51-1.34 1.52-.77 0-1.2-.54-1.37-1.5-.18-1.44-.48-2.86-.9-4.24a6.949 6.949 0 0 0-6.64-4.91c-.18 0-.36-.01-.55-.04a1.24 1.24 0 0 1-1.19-1.22Zm6.62-.07c1.76 1.11 3.16 2.71 4.02 4.6.86-1.89 2.25-3.5 4.01-4.62-1.76-1.1-3.15-2.7-4.02-4.58a10.88 10.88 0 0 1-4 4.6Zm-28.04 5.07s-.01-.04-.02-.07c0-.04-.02-.08-.03-.11l-.06-.15c-.01-.03-.03-.06-.04-.08l-.09-.15c-.02-.02-.03-.04-.05-.06-.04-.05-.08-.09-.13-.14-.02-.01-.03-.03-.05-.04-.05-.04-.1-.08-.16-.11-.02 0-.03-.02-.05-.03-.06-.03-.12-.06-.19-.08-.02 0-.03-.01-.05-.02-.07-.02-.14-.04-.21-.05H26.38c-4.2.14-7.56 3.52-7.7 7.72-.02.53.14.94.42 1.22.21.21.47.35.81.37.77.04 1.3-.45 1.42-1.34.06-.41.07-.83.16-1.23a5.377 5.377 0 0 1 5.08-4.09h.29c.03 0 .06-.02.09-.03.1-.02.19-.05.28-.09l.18-.09c.08-.05.14-.11.21-.18.05-.05.1-.1.14-.16.05-.07.08-.15.12-.23.03-.08.06-.15.07-.23 0-.04.03-.07.03-.1.01-.1 0-.19 0-.29 0-.05-.01-.1-.02-.15Zm28.05 12.27c-.88-.03-1.77-.02-2.65 0h-.04c-.14 0-.27.03-.4.07h-.06c-.13.05-.25.12-.35.21-.02.02-.04.02-.06.04-.09.08-.16.18-.22.29-.02.04-.06.06-.07.1-.04.09-.06.19-.08.29-.01.06-.04.12-.05.18v.08c0 .08.02.14.03.21.01.1.01.19.05.28.02.05.06.1.08.15.05.1.1.2.18.28.03.03.07.05.1.08.09.09.19.17.31.22l.1.03c.12.04.23.09.36.1h.05c.46.05.93.01 1.4.01.47 0 .94.03 1.4-.01.71-.05 1.26-.65 1.24-1.36-.01-.72-.6-1.29-1.31-1.28Zm-25.36 3.94c0-.52-.3-.96-.75-1.16-.15-.07-.31-.11-.48-.11-.68-.08-1.3.4-1.38 1.09-.07 1.05-.07 2.09 0 3.13.07.51.43.91.9 1.05.16.05.32.07.5.05.68-.06 1.2-.62 1.2-1.3.02-.44 0-.88 0-1.33 0-.46.02-.93 0-1.4Zm1.33-14.65h.08c.07 0 .13-.03.2-.05.09-.02.18-.03.26-.06a.99.99 0 0 0 .17-.11c.08-.05.16-.1.23-.17.04-.04.07-.1.11-.15.06-.08.12-.16.16-.26.02-.06.03-.12.04-.18.02-.09.06-.17.06-.27v-.1s-.02-.06-.02-.09c-.01-.15-.04-.29-.09-.42-.01-.03-.04-.06-.06-.09-.06-.12-.13-.23-.22-.32-.04-.04-.09-.05-.13-.09-.09-.07-.18-.14-.29-.19-.07-.03-.15-.03-.22-.05-.09-.02-.17-.05-.27-.06h-.03c-.73.03-1.31.64-1.3 1.37.03.71.61 1.26 1.32 1.27ZM20 48.05a6.656 6.656 0 1 1 0-.14v.15Zm-2.66-.07a3.99 3.99 0 0 0-3.99-3.97 3.946 3.946 0 0 0-3.99 3.91v.11c.01 2.2 1.81 3.98 4.01 3.97s3.98-1.81 3.97-4.01Zm56.01-.01c.02 3.68-2.95 6.68-6.62 6.7s-6.68-2.95-6.7-6.62 2.95-6.68 6.62-6.7 6.68 2.95 6.7 6.62Zm-2.7.07c0-2.2-1.8-3.99-4-3.98-2.17 0-3.93 1.74-3.98 3.9-.05 2.2 1.7 4.03 3.9 4.08 2.2.05 4.03-1.7 4.08-3.9v-.1Z" fill="#0A0500"></path></svg>