<svg xmlns="http://www.w3.org/2000/svg" viewBox="0 0 80 80" aria-hidden="true" width="32" height="32"><path d="M53.15 73.9c-.07.58-.52 1.05-1.1 1.13-.27.04-.55.06-.83.05H3.14c-1.59 0-1.96-.38-1.96-1.97V1.97C1.18.37 1.56 0 3.14 0h70.49c1.61 0 1.99.36 1.99 1.94v26.83c-.04.93-.54 1.52-1.3 1.54-.79.02-1.32-.58-1.36-1.55V2.71H3.89v69.71h47.04c.36-.01.72 0 1.08.04.71.08 1.22.73 1.14 1.44ZM35.99 8.76c0 4.61-.03 9.22-.03 13.83 0 14.58.01 29.16.03 43.73.09.78-.46 1.48-1.24 1.57-.12.01-.25.01-.37 0-7.92 0-15.83-.02-23.75-.02-1.71 0-2.03-.32-2.03-2.05V9.25c0-1.71.35-2.06 2.03-2.07h23.75a1.433 1.433 0 0 1 1.6 1.57Zm-2.74 1.16H11.34v55.23h21.91V9.92Zm45.56 60.34c-.15 2.35-.47 4.69-.96 6.99a3.375 3.375 0 0 1-3.43 2.73c-3.8.02-7.61.02-11.41 0-1.59.04-3.01-.97-3.48-2.48-.97-2.91-1.29-5.99-.93-9.03.05-.72.17-1.43.26-2.15.17-1.55.71-3.03 1.56-4.34a32.48 32.48 0 0 0 3.82-7.55c.67-1.69.73-3.56.18-5.29-.06-.24-.08-.5-.06-.75 0-1.44-.03-2.89.01-4.33.05-.65.15-1.3.28-1.94l-.45-.27c-.71 1.03-1.35 2.07-2.1 3.01a6.553 6.553 0 0 1-3.45 2.36c-.7.27-1.49-.08-1.77-.78v-.02c-.25-.7.13-1.46.83-1.7.05-.02.1-.03.15-.04 1.85-.6 2.73-2.12 3.69-3.78-.73-.09-1.32-.18-1.92-.24-.75.04-1.38-.54-1.42-1.29v-.13c-.03-1.08-.03-2.17 0-3.25-.06-.72.47-1.35 1.19-1.41h.22c1.66-.08 3.33-.13 5-.12 2.53 0 5.05.12 7.58.1 1.37-.09 2.55.94 2.65 2.31.04.62-.15 1.24-.54 1.72-.59 1.03-1.08 2.11-1.45 3.24 1.56.42 1.86.71 1.77 2.13-.09 2.41.28 4.81 1.1 7.08 2.16 6.17 3.2 12.68 3.08 19.21ZM67.5 41.08c.65.76 1.66 1.1 2.64.87l1.62-4.74H60.92v.87c.2.03.31.05.43.07 2.35.37 4.6 1.05 6.16 2.92Zm-.43 3.57v2.8h4.86v-2.8h-4.86Zm8.66 18.41c-.57-4.15-1.52-8.23-2.86-12.2-.09-.26-.35-.66-.54-.67-1.63-.05-3.26-.03-4.81-.03-.04 1.08-.13 2.16-.28 3.23-.8 3.38-2.23 6.58-4.22 9.43a9.88 9.88 0 0 0-1.6 4.22c-.49 3.05-.34 6.17.45 9.15.14.74.84 1.23 1.58 1.13 3.11-.04 6.22-.01 9.32-.02 2.52 0 2.37.32 2.9-2.49.65-3.89.67-7.87.05-11.76Zm-24.07 2.13c-2.39-.02-4.78 0-7.17 0h-.93V9.89h21.96v18.39c-.01.28 0 .56.02.83.07.6.54 1.07 1.13 1.16.72.1 1.39-.41 1.49-1.13.03-.25.04-.5.02-.75V9.15c0-1.58-.38-1.97-1.96-1.97H42.81c-1.61 0-1.97.33-1.97 1.91v56.4c0 .33-.01.67 0 1v.24c.07.7.7 1.22 1.4 1.14 3.14 0 6.28 0 9.41-.03h.15c.74 0 1.35-.59 1.35-1.33v-.09c-.07-.76-.74-1.31-1.5-1.24Zm4.49-34.21c-.11.93-.6 1.4-1.36 1.4S53.58 31.9 53.4 31c-.12-.79-.32-1.57-.58-2.33a3.934 3.934 0 0 0-3.13-2.56c-.97-.17-1.42-.63-1.41-1.36.01-.84.55-1.19 1.29-1.39a4.675 4.675 0 0 0 3.79-4.55c.11-1.19.54-1.72 1.45-1.71.59-.01 1.1.4 1.23.97.07.32.11.65.12.99a4.503 4.503 0 0 0 3.4 4.23c.21.06.43.11.64.18.63.21 1.07.68.92 1.3-.11.46-.54 1.1-.93 1.19-2.74.6-3.75 2.5-4.05 5.02Zm.18-6.18-1.71-1.63-1.43 1.55 1.6 1.83 1.54-1.75Zm-27.6 25.97c.01.6-.42 1.11-1.01 1.21-2.65.51-3.63 2.39-3.99 4.79-.17 1.12-.55 1.56-1.35 1.58-.82.01-1.19-.45-1.42-1.6-.15-.82-.38-1.61-.7-2.38-.51-1.2-1.6-2.06-2.89-2.26-.14-.02-.27-.07-.4-.1-.64-.08-1.11-.63-1.1-1.27-.06-.64.39-1.23 1.03-1.32 2.7-.56 3.85-2.36 4.1-4.95.09-.95.63-1.46 1.4-1.42s1.25.61 1.31 1.54c.16 2.67 1.23 4.01 3.83 4.76.7.1 1.22.71 1.2 1.42Zm-4.81 0-1.72-1.66-1.46 1.58 1.61 1.79 1.56-1.72ZM14.53 24.7c.57.47 1.41.39 1.88-.18 3.2-3.08 6.38-6.17 9.55-9.28.29-.36.54-.75.75-1.17-.29-.42-.63-.8-1.02-1.12-.54-.28-1.21-.12-1.57.37-3.19 3.09-6.37 6.18-9.54 9.28-.06.04-.11.08-.16.13a1.31 1.31 0 0 0 0 1.85c.03.04.07.07.11.1Zm5.9 3.97c1.02-.97 2.04-1.95 3.03-2.95.28-.36.53-.74.74-1.14-.25-.42-.56-.8-.92-1.12-.52-.32-1.2-.2-1.59.27-1.05 1.02-2.12 2.04-3.15 3.07-.05.04-.1.09-.15.14a1.31 1.31 0 0 0 .13 1.93c.58.47 1.43.38 1.9-.2Zm4.79-8.34c-.51.52-.5 1.35.02 1.86s1.35.5 1.86-.02c1.01-.94 2.01-1.91 2.98-2.89.24-.32.44-.67.6-1.04-.26-.4-.57-.77-.92-1.09a1.17 1.17 0 0 0-1.52.23c-1 .95-2 1.91-2.97 2.9-.02.02-.04.03-.05.05Z"></path></svg>