<svg width="600" height="400" viewBox="0 0 600 400" fill="none" xmlns="http://www.w3.org/2000/svg">
  <!-- Dashboard Background -->
  <rect width="600" height="400" rx="16" fill="#ffffff"/>
  <rect width="600" height="400" rx="16" stroke="#e2e8f0" stroke-width="1"/>
  
  <!-- Header -->
  <rect x="0" y="0" width="600" height="60" rx="16" fill="#f8fafc"/>
  <rect x="20" y="20" width="120" height="20" rx="4" fill="#6366f1"/>
  <rect x="500" y="15" width="80" height="30" rx="15" fill="#10b981"/>
  
  <!-- Navigation -->
  <rect x="20" y="80" width="80" height="16" rx="4" fill="#94a3b8"/>
  <rect x="120" y="80" width="60" height="16" rx="4" fill="#94a3b8"/>
  <rect x="200" y="80" width="70" height="16" rx="4" fill="#6366f1"/>
  <rect x="290" y="80" width="65" height="16" rx="4" fill="#94a3b8"/>
  
  <!-- Stats Cards -->
  <rect x="20" y="120" width="170" height="80" rx="8" fill="#ffffff" stroke="#e2e8f0"/>
  <rect x="30" y="130" width="60" height="12" rx="2" fill="#64748b"/>
  <rect x="30" y="150" width="100" height="24" rx="4" fill="#1e293b"/>
  <rect x="30" y="180" width="80" height="10" rx="2" fill="#10b981"/>
  
  <rect x="210" y="120" width="170" height="80" rx="8" fill="#ffffff" stroke="#e2e8f0"/>
  <rect x="220" y="130" width="70" height="12" rx="2" fill="#64748b"/>
  <rect x="220" y="150" width="120" height="24" rx="4" fill="#1e293b"/>
  <rect x="220" y="180" width="90" height="10" rx="2" fill="#f59e0b"/>
  
  <rect x="400" y="120" width="170" height="80" rx="8" fill="#ffffff" stroke="#e2e8f0"/>
  <rect x="410" y="130" width="65" height="12" rx="2" fill="#64748b"/>
  <rect x="410" y="150" width="110" height="24" rx="4" fill="#1e293b"/>
  <rect x="410" y="180" width="85" height="10" rx="2" fill="#8b5cf6"/>
  
  <!-- Chart Area -->
  <rect x="20" y="220" width="360" height="160" rx="8" fill="#ffffff" stroke="#e2e8f0"/>
  <rect x="30" y="230" width="80" height="16" rx="4" fill="#1e293b"/>
  
  <!-- Chart Lines -->
  <path d="M40 320 L80 300 L120 280 L160 290 L200 260 L240 250 L280 240 L320 230 L360 220" stroke="#6366f1" stroke-width="3" fill="none"/>
  <path d="M40 340 L80 330 L120 320 L160 325 L200 310 L240 300 L280 295 L320 285 L360 275" stroke="#10b981" stroke-width="2" fill="none"/>
  
  <!-- Chart Points -->
  <circle cx="360" cy="220" r="4" fill="#6366f1"/>
  <circle cx="360" cy="275" r="3" fill="#10b981"/>
  
  <!-- Recent Activity -->
  <rect x="400" y="220" width="170" height="160" rx="8" fill="#ffffff" stroke="#e2e8f0"/>
  <rect x="410" y="230" width="100" height="16" rx="4" fill="#1e293b"/>
  
  <!-- Activity Items -->
  <circle cx="420" cy="260" r="6" fill="#10b981"/>
  <rect x="435" y="255" width="120" height="10" rx="2" fill="#64748b"/>
  
  <circle cx="420" cy="280" r="6" fill="#f59e0b"/>
  <rect x="435" y="275" width="100" height="10" rx="2" fill="#64748b"/>
  
  <circle cx="420" cy="300" r="6" fill="#6366f1"/>
  <rect x="435" y="295" width="110" height="10" rx="2" fill="#64748b"/>
  
  <circle cx="420" cy="320" r="6" fill="#8b5cf6"/>
  <rect x="435" y="315" width="90" height="10" rx="2" fill="#64748b"/>
  
  <!-- Floating Elements for Animation -->
  <rect x="480" y="60" width="100" height="40" rx="8" fill="#ffffff" stroke="#e2e8f0" filter="drop-shadow(0 4px 6px rgba(0,0,0,0.1))"/>
  <rect x="490" y="70" width="80" height="8" rx="2" fill="#10b981"/>
  <rect x="490" y="82" width="60" height="6" rx="2" fill="#64748b"/>
  
  <rect x="50" y="50" width="120" height="35" rx="8" fill="#ffffff" stroke="#e2e8f0" filter="drop-shadow(0 4px 6px rgba(0,0,0,0.1))"/>
  <rect x="60" y="60" width="100" height="6" rx="2" fill="#f59e0b"/>
  <rect x="60" y="70" width="80" height="5" rx="2" fill="#64748b"/>
</svg>